<svg xmlns="http://www.w3.org/2000/svg" xmlns:xlink="http://www.w3.org/1999/xlink" width="1080" zoomAndPan="magnify" viewBox="0 0 810 809.999993" height="1080" preserveAspectRatio="xMidYMid meet" version="1.2"><g id="f7dfbb56c9"><path style=" stroke:none;fill-rule:evenodd;fill:#229c99;fill-opacity:1;" d="M 387.859375 702.578125 C 373.246094 718.558594 348.550781 726.746094 320.851562 727.539062 C 274.664062 728.804688 220.710938 709.15625 182.765625 675.585938 C 171.691406 665.761719 161.410156 655.34375 152.066406 644.925781 C 134.847656 625.726562 119.863281 605.257812 108.535156 585.890625 C 70.726562 521.234375 55.011719 446.527344 63.648438 372.246094 C 66.28125 349.574219 71.152344 327.496094 78.035156 306.265625 C 85.03125 284.636719 94.148438 263.859375 105.167969 244.234375 C 116.265625 224.386719 129.292969 205.722656 143.992188 188.503906 C 173.277344 154.199219 209.242188 125.597656 250.082031 104.761719 C 289.390625 84.714844 333.230469 71.871094 380.015625 68.113281 C 403.097656 66.28125 425.839844 66.734375 447.984375 69.273438 C 470.722656 71.898438 492.871094 76.753906 514.171875 83.613281 C 535.886719 90.617188 556.707031 99.679688 576.386719 110.664062 C 596.296875 121.730469 615.019531 134.714844 632.292969 149.371094 C 649.566406 164.054688 665.429688 180.402344 679.558594 198.1875 C 693.546875 215.804688 705.898438 234.863281 716.292969 255.136719 C 726.484375 274.980469 734.8125 295.988281 741.042969 317.953125 C 747.101562 339.355469 751.179688 361.65625 753.050781 384.667969 C 756.53125 427.839844 751.917969 470.019531 740.445312 509.796875 C 707.109375 625.359375 619.96875 712.628906 509.550781 758.507812 L 508.445312 758.960938 C 556.308594 745.210938 600.746094 721.664062 639.003906 689.929688 C 655.035156 676.632812 669.875 661.980469 683.351562 646.199219 C 698.730469 628.210938 712.355469 608.703125 723.933594 587.976562 C 735.4375 567.484375 744.949219 545.769531 752.285156 523.15625 C 759.480469 500.992188 764.546875 477.925781 767.292969 454.234375 C 769.984375 431.140625 770.46875 407.480469 768.511719 383.425781 C 766.585938 359.398438 762.308594 336.078125 755.96875 313.714844 C 749.453125 290.792969 740.757812 268.828125 730.105469 248.074219 C 719.261719 226.929688 706.378906 207.023438 691.738281 188.617188 C 676.953125 170.007812 660.414062 152.898438 642.34375 137.597656 C 624.304688 122.269531 604.738281 108.714844 583.949219 97.140625 C 563.386719 85.675781 541.613281 76.1875 518.921875 68.878906 C 496.691406 61.707031 473.558594 56.652344 449.796875 53.910156 C 426.628906 51.230469 402.898438 50.75 378.769531 52.699219 C 354.667969 54.617188 331.273438 58.882812 308.847656 65.207031 C 285.851562 71.699219 263.816406 80.367188 243 90.984375 C 221.789062 101.792969 201.824219 114.644531 183.359375 129.242188 C 164.695312 143.976562 147.53125 160.464844 132.183594 178.476562 C 116.804688 196.492188 103.183594 215.972656 91.601562 236.695312 C 80.101562 257.195312 70.585938 278.90625 63.25 301.519531 C 56.058594 323.683594 50.988281 346.753906 48.242188 370.441406 C 39.207031 448.082031 55.464844 525.808594 95.140625 593.710938 C 107.175781 614.289062 121.109375 633.40625 136.601562 650.855469 C 167.527344 685.667969 205.957031 715.257812 249.230469 731.066406 C 290.152344 746 348.210938 750.265625 387.066406 726.800781 C 408.929688 713.617188 423.003906 691.992188 425.523438 660.058594 C 425.980469 653.988281 426.0625 647.578125 425.695312 640.832031 C 425.070312 628.691406 425.839844 612.824219 429.234375 596.816406 C 437.589844 557.316406 490.691406 498.167969 520.144531 473.433594 C 540.476562 456.355469 547.019531 445.796875 546.394531 438.792969 C 545.519531 429.503906 530.679688 428.320312 506.066406 444.328125 C 487.859375 456.210938 471.234375 473.6875 459.535156 489.867188 C 444.074219 511.210938 425.554688 544.839844 418.617188 588.628906 C 412.839844 512.339844 422.15625 466.238281 478.765625 406.832031 C 495.816406 388.960938 514.476562 370.183594 539.003906 355.304688 C 561.714844 341.5 569.816406 332.070312 570.242188 325.066406 C 570.808594 315.75 556.308594 312.304688 529.546875 324.417969 C 509.75 333.367188 490.632812 348.132812 476.589844 362.335938 C 456.476562 382.691406 430.539062 416.828125 417.824219 464.851562 C 419.378906 452.992188 422.578125 438.113281 426.828125 421.597656 C 449.3125 334.640625 469.25 289.351562 505.445312 210.1875 C 507.539062 205.640625 509.300781 201.40625 510.347656 198.355469 C 516.207031 181.445312 512.160156 168.824219 492.871094 184.859375 C 457.105469 214.621094 433.570312 294.859375 424.023438 338.421875 C 413.234375 387.773438 407.625 438.257812 405.871094 475.101562 C 409.097656 372.785156 434.25 289.691406 429.914062 186.667969 C 428.582031 154.847656 421.871094 143.636719 416.492188 144.09375 C 409.554688 144.683594 403.464844 165.183594 399.355469 191.15625 C 386.839844 270.238281 396.355469 324.25 402.472656 400.535156 L 405.703125 457.539062 L 405.871094 475.101562 C 404.851562 447.066406 402.386719 415.835938 397.914062 384.921875 C 391.542969 340.792969 373.839844 259.085938 340.308594 226.847656 C 322.242188 209.449219 317.285156 221.761719 321.898438 239.039062 C 322.75 242.175781 324.195312 246.523438 325.953125 251.210938 C 349.089844 313.269531 381.148438 399.066406 393.664062 463.414062 C 391.058594 459.09375 381.035156 443.707031 378.34375 438.90625 C 337.050781 365.414062 321.109375 321.851562 294.203125 244.800781 C 292.675781 240.367188 291.117188 236.359375 289.84375 233.589844 C 282.820312 218.34375 271.859375 212.417969 269.226562 235.738281 C 264.324219 279.019531 300.519531 348.613281 322.355469 384.300781 C 343.285156 418.492188 367.242188 450.792969 387.886719 475.75 C 389.019531 477.105469 394.738281 484.277344 395.847656 485.578125 C 395.875 485.773438 395.902344 486.140625 395.929688 486.59375 C 395.988281 488.679688 395.675781 493.875 395.449219 497.914062 C 393.78125 529.761719 395.875 563.441406 398.28125 595.179688 C 399.160156 606.695312 400.066406 617.878906 400.746094 627.617188 C 400.039062 626.320312 399.132812 625.019531 398.226562 623.808594 C 391.003906 581.429688 384.039062 530.523438 364.75 491.449219 C 349.371094 460.277344 339.773438 474.820312 342.972656 495.0625 C 349.964844 539.078125 378.570312 583.488281 397.574219 622.960938 C 395.195312 619.996094 392.84375 617.679688 392.84375 617.679688 C 391.796875 616.464844 390.691406 615.222656 389.613281 613.953125 C 343.285156 559.859375 328.871094 500.171875 303.664062 440.769531 C 302.390625 437.75 300.320312 432.355469 297.6875 426.566406 C 280.042969 387.859375 262.628906 399.378906 267.242188 436.140625 C 276.476562 509.910156 328.300781 580.4375 385.511719 625.359375 C 407.882812 643.144531 406.015625 682.699219 387.859375 702.578125 "/></g></svg>