<svg width="500" height="400" viewBox="0 0 500 400" fill="none" xmlns="http://www.w3.org/2000/svg">
  <!-- Background gradient -->
  <defs>
    <linearGradient id="teamBg" x1="0%" y1="0%" x2="100%" y2="100%">
      <stop offset="0%" style="stop-color:#4a7c59;stop-opacity:0.9" />
      <stop offset="50%" style="stop-color:#7cb342;stop-opacity:0.8" />
      <stop offset="100%" style="stop-color:#2d5016;stop-opacity:0.9" />
    </linearGradient>
    <linearGradient id="personGrad" x1="0%" y1="0%" x2="100%" y2="100%">
      <stop offset="0%" style="stop-color:#8bc34a;stop-opacity:0.8" />
      <stop offset="100%" style="stop-color:#7cb342;stop-opacity:0.9" />
    </linearGradient>
  </defs>
  
  <!-- Background -->
  <rect width="500" height="400" fill="url(#teamBg)" rx="20"/>
  
  <!-- Team silhouettes -->
  <!-- Person 1 -->
  <circle cx="150" cy="160" r="25" fill="url(#personGrad)"/>
  <rect x="130" y="185" width="40" height="60" fill="url(#personGrad)" rx="20"/>
  
  <!-- Person 2 -->
  <circle cx="250" cy="150" r="30" fill="url(#personGrad)"/>
  <rect x="225" y="180" width="50" height="70" fill="url(#personGrad)" rx="25"/>
  
  <!-- Person 3 -->
  <circle cx="350" cy="160" r="25" fill="url(#personGrad)"/>
  <rect x="330" y="185" width="40" height="60" fill="url(#personGrad)" rx="20"/>
  
  <!-- Team connection lines -->
  <line x1="175" y1="180" x2="225" y2="170" stroke="#8bc34a" stroke-width="2" opacity="0.6"/>
  <line x1="275" y1="170" x2="325" y2="180" stroke="#8bc34a" stroke-width="2" opacity="0.6"/>
  
  <!-- Text -->
  <text x="250" y="300" text-anchor="middle" fill="white" font-family="Arial, sans-serif" font-size="24" font-weight="bold">Nossa Equipe</text>
  <text x="250" y="330" text-anchor="middle" fill="#8bc34a" font-family="Arial, sans-serif" font-size="16">Especializada em Beleza</text>
  
  <!-- Decorative elements -->
  <circle cx="50" cy="50" r="4" fill="white" opacity="0.3"/>
  <circle cx="450" cy="50" r="4" fill="white" opacity="0.3"/>
  <circle cx="50" cy="350" r="4" fill="white" opacity="0.3"/>
  <circle cx="450" cy="350" r="4" fill="white" opacity="0.3"/>
  
  <!-- Beauty icons around team -->
  <text x="100" y="100" font-size="20" opacity="0.4">💄</text>
  <text x="400" y="100" font-size="20" opacity="0.4">✨</text>
  <text x="400" y="320" font-size="20" opacity="0.4">🌿</text>
  <text x="100" y="320" font-size="20" opacity="0.4">💅</text>
</svg>
